<svg width="22" height="20" viewBox="0 0 22 20" fill="none" xmlns="http://www.w3.org/2000/svg">
<path d="M10.9599 19.75L2.26992 11.06C1.07992 9.87 0.419922 8.27 0.419922 6.58C0.419922 3.09 3.25992 0.25 6.74992 0.25C8.30992 0.25 9.80992 0.83 10.9599 1.85C12.1199 0.83 13.6099 0.25 15.1699 0.25C18.6599 0.25 21.4999 3.09 21.4999 6.58C21.4999 8.27 20.8399 9.86 19.6399 11.06L10.9599 19.75ZM6.74992 1.87C4.14992 1.87 2.03992 3.98 2.03992 6.58C2.03992 7.84 2.52992 9.02 3.41992 9.91L10.9599 17.45L18.4999 9.91C19.3899 9.02 19.8799 7.84 19.8799 6.58C19.8799 3.98 17.7699 1.87 15.1699 1.87C13.7899 1.87 12.4799 2.48 11.5799 3.53L10.9599 4.26L10.3399 3.54C9.44992 2.48 8.13992 1.87 6.74992 1.87Z" fill="black"/>
</svg>
