<svg width="137" height="135" viewBox="0 0 137 135" fill="none" xmlns="http://www.w3.org/2000/svg">
<path d="M136.966 66.4673C136.762 62.9978 135.478 59.7118 133.038 56.421C132.095 55.1517 131.124 53.8401 130.806 52.6789C128.622 44.7058 125.665 38.0726 121.766 32.3936C116.596 24.8718 110.1 18.6664 102.448 13.9465C97.2172 10.7168 92.1426 8.49318 86.9401 7.13926C83.6565 6.28836 81.3537 5.1836 79.4727 3.56172C77.3831 1.7612 74.6634 0.623527 71.3893 0.176922C66.2673 -0.523543 61.5434 0.858582 57.3595 4.27629C55.9902 5.39515 54.8199 6.0392 53.5643 6.36358C50.5176 7.15337 47.8642 7.98546 45.4572 8.91158C39.9562 11.0224 34.7157 13.9982 29.878 17.7591C23.9411 22.3756 18.9186 27.89 14.948 34.1518C11.6218 39.3983 9.34271 44.499 7.96864 49.7548C7.12998 52.9704 6.03546 55.2081 4.41973 57.018C3.32521 58.2403 2.71399 59.6647 2.16435 60.9481C0.382795 65.0898 0.306982 69.396 1.93692 73.4014C2.68082 75.2254 3.6711 76.9789 4.79405 78.4598C6.29132 80.4342 7.15367 82.0937 7.58485 83.8472C8.19607 86.32 9.03473 88.868 10.0771 91.4207C14.4363 102.059 21.5104 111.076 31.1194 118.222C37.6581 123.087 44.846 126.486 52.4745 128.32C54.384 128.78 56.0708 129.641 57.7812 131.032C60.7853 133.477 64.5 135 67.4519 135C67.504 135 67.5609 135 67.613 135C72.7113 135 76.9188 133.646 80.1265 130.981C81.7281 129.65 83.4243 128.776 85.3101 128.32C87.6982 127.737 90.0436 126.999 92.28 126.129C101.103 122.697 108.911 117.399 115.488 110.385C116.753 109.036 117.942 107.654 119.06 106.243C117.525 105.444 115.639 104.462 113.668 103.441C112.853 104.429 112.005 105.397 111.114 106.351C105.154 112.707 98.0843 117.507 90.1004 120.615C88.1057 121.39 86.0161 122.048 83.8839 122.566C81.0884 123.247 78.6056 124.517 76.2886 126.444C74.1327 128.235 71.2661 129.1 67.4708 129.077C66.1394 129.077 63.685 128.174 61.5671 126.453C59.1695 124.502 56.6536 123.228 53.8817 122.561C47.0445 120.915 40.5911 117.86 34.7015 113.478C25.9785 106.991 19.5535 98.8203 15.6113 89.1877C14.6779 86.903 13.9293 84.6323 13.3844 82.4369C12.7495 79.8701 11.5744 77.5431 9.56541 74.8963C8.75044 73.8198 8.0255 72.5317 7.47113 71.1778C6.41925 68.5921 6.48085 66.0065 7.67013 63.2329C8.04919 62.3538 8.43772 61.4418 8.88785 60.9387C11.1622 58.3907 12.6642 55.4008 13.7492 51.231C14.9669 46.5722 17.0091 42.0168 20.0036 37.2922C23.6047 31.6132 28.1675 26.6066 33.5596 22.4132C37.933 19.0143 42.6617 16.3252 47.6083 14.426C49.8021 13.5845 52.247 12.8182 55.071 12.0848C57.1748 11.5395 59.1079 10.5053 61.1501 8.83636C63.5476 6.876 66.0778 5.91227 68.8497 5.91227C69.4135 5.91227 69.9868 5.94988 70.5696 6.0298C72.6734 6.31657 74.3507 6.98413 75.5495 8.01837C78.1602 10.2655 81.2021 11.7558 85.4191 12.8511C90.0341 14.0499 94.5686 16.0479 99.2831 18.9578C106.225 23.2406 112.124 28.8772 116.819 35.7126C120.34 40.8368 123.026 46.8871 125.03 54.2115C125.642 56.4398 127.011 58.2873 128.224 59.9233C129.977 62.2833 130.854 64.4646 130.991 66.7869C131.166 69.7533 130.394 72.2496 128.631 74.4215C126.537 77.0071 125.111 79.809 124.272 82.9775C123.187 87.0957 121.595 91.0446 119.52 94.8055C121.41 95.8633 123.225 96.8787 124.727 97.7155C127.049 93.5174 128.83 89.0937 130.048 84.4772C130.674 82.0984 131.702 80.0817 133.284 78.1307C135.995 74.8352 137.226 70.9004 136.966 66.4673Z" fill="#1A1A1A"/>
</svg>
