<svg width="20" height="20" viewBox="0 0 20 20" fill="none" xmlns="http://www.w3.org/2000/svg">
<path d="M10.3409 19.8C8.83094 19.8 7.31094 19.45 5.89094 18.7L1.10094 19.4L1.80094 14.62C0.310939 11.76 0.350939 8.26 1.93094 5.44C4.53094 0.799998 10.4209 -0.870002 15.0609 1.73C19.7009 4.33 21.3709 10.22 18.7709 14.87C17.0109 18.02 13.7209 19.8 10.3409 19.8ZM6.18094 17.04L6.42094 17.17C10.3009 19.34 15.2109 17.95 17.3809 14.07C19.5509 10.2 18.1609 5.28 14.2809 3.11C10.4109 0.959997 5.49094 2.34 3.33094 6.22C1.97094 8.65 1.97094 11.66 3.33094 14.08L3.46094 14.32L2.99094 17.51L6.18094 17.04Z" fill="black"/>
</svg>
