<svg width="19" height="20" viewBox="0 0 19 20" fill="none" xmlns="http://www.w3.org/2000/svg">
<path d="M12.8499 12.5702C13.8799 11.3002 14.4399 9.7102 14.4399 8.0602C14.4399 4.0902 11.2099 0.860199 7.23992 0.860199C3.26992 0.860199 0.039917 4.0902 0.039917 8.0602C0.039917 12.0302 3.26992 15.2602 7.23992 15.2602C8.87992 15.2602 10.4699 14.7002 11.7399 13.6802L17.7999 19.7402L18.9099 18.6302L12.8499 12.5702ZM12.8699 8.0602C12.8699 11.1702 10.3399 13.6902 7.23992 13.6902C4.13992 13.6902 1.60992 11.1602 1.60992 8.0602C1.60992 4.9602 4.13992 2.4302 7.23992 2.4302C10.3399 2.4302 12.8699 4.9602 12.8699 8.0602Z" fill="black"/>
</svg>
